<?xml version="1.0" standalone="no"?>
<!DOCTYPE svg PUBLIC "-//W3C//DTD SVG 20010904//EN"
 "http://www.w3.org/TR/2001/REC-SVG-20010904/DTD/svg10.dtd">
<svg version="1.0" xmlns="http://www.w3.org/2000/svg"
 width="2000.000000pt" height="510.000000pt" viewBox="0 0 2000.000000 510.000000"
 preserveAspectRatio="xMidYMid meet">

<g transform="translate(0.000000,510.000000) scale(0.100000,-0.100000)"
fill="#000000" stroke="none">
<path d="M3913 4133 c3 -10 178 -403 389 -873 211 -470 521 -1162 688 -1537
168 -376 308 -679 311 -675 4 4 39 115 78 247 38 132 111 359 161 504 49 145
90 265 90 267 0 2 -15 -5 -32 -16 -38 -23 -82 -25 -117 -6 -17 9 -76 120 -212
397 -103 211 -191 389 -196 394 -5 6 -140 303 -300 660 l-291 650 -287 3
c-271 2 -287 1 -282 -15z"/>
<path d="M8340 3910 l0 -240 68 0 c225 -1 428 -156 487 -373 12 -47 14 -8 14
401 l1 452 -285 0 -285 0 0 -240z"/>
<path d="M11510 2585 l0 -1565 834 0 c938 0 930 0 1071 69 198 99 347 313 419
603 49 195 51 454 6 645 -49 208 -136 356 -263 449 l-59 44 -714 0 -714 0 0
655 0 655 338 3 c188 1 59 3 -290 5 l-628 2 0 -1565z m1609 -381 c68 -77 85
-137 85 -289 0 -113 -3 -138 -23 -189 -28 -71 -82 -133 -136 -157 -37 -17 -77
-19 -497 -19 l-458 0 0 350 0 350 494 0 494 0 41 -46z"/>
<path d="M15800 2587 l0 -1567 1005 0 1005 0 0 315 0 315 -715 0 -715 0 0 930
0 930 710 0 710 0 0 315 0 315 -752 0 c-414 0 -864 3 -1000 7 l-248 6 0 -1566z"/>
<path d="M8340 1935 l0 -925 285 0 285 0 0 700 c0 472 -4 716 -11 752 -19 92
-67 177 -138 249 -100 99 -220 149 -361 149 l-60 0 0 -925z"/>
</g>
</svg>
