<?xml version="1.0" standalone="yes"?>
<svg xmlns="http://www.w3.org/2000/svg" width="2000" height="510">
<path style="fill:#010101; stroke:none;" d="M0 0L0 510L2000 510L2000 0L0 0z"/>
<path style="fill:#eb1b27; stroke:none;" d="M390 94L404.691 129L432 190L443.231 215L448.638 224.972L465 226L507 226C494.417 179.994 462.193 139.815 449 94L390 94M834 95L834 143C859.154 143 887.517 156.565 890 185L891 185L891 95L834 95M1151 95L1151 408L1209 408L1209 95L1151 95z"/>
<path style="fill:#293991; stroke:none;" d="M1209 95L1209 96L1288 96L1263 95L1209 95M1580 95L1580 408L1638 408C1638 335.609 1639 263.35 1639 191C1639 173.611 1638 156.357 1638 139C1638 127.917 1639.26 116.519 1632.36 107.004C1620.44 90.5577 1597.63 95 1580 95z"/>
<path style="fill:#f5cf01; stroke:none;" d="M580 96C575.898 113.311 567.703 130.454 561.203 147C552.631 168.818 544.997 190.989 536.947 213C532.446 225.305 524.118 240.01 522.623 253C522.095 257.58 525.283 262.073 527.247 266C531.885 275.276 536.118 284.73 540.753 294C542.81 298.115 544.618 303.441 549.043 305.562C554.867 308.354 561.407 304.966 564.66 299.96C571.46 289.495 574.388 273.837 578.333 262C591.266 223.201 605.357 184.788 618.333 146C623.726 129.882 632.517 112.816 635 96L580 96M1209 96L1209 154L1261 154C1269.39 154 1278.12 152.556 1284.99 158.329C1305.51 175.596 1300.71 223.302 1270 226C1275.71 228.395 1283.85 227 1290 227L1333 227C1339.09 227 1348.67 228.801 1354 225.397C1363.18 219.529 1369.01 206.191 1371.35 196C1376.95 171.582 1372.85 144.299 1355.82 125.001C1320.38 84.8652 1256.66 96 1209 96z"/>
<path style="fill:#eb1b27; stroke:none;" d="M1618 96L1618 97C1643.42 107.97 1638 136.317 1638 159L1780 159L1780 96L1618 96z"/>
<path style="fill:#a1903d; stroke:none;" d="M1320 102L1321 103L1320 102z"/>
<path style="fill:#f5cf01; stroke:none;" d="M834 143L834 224C859.304 224 886.199 236.913 890 265C894.308 254.735 891 237.158 891 226C891 193.753 893.278 156.455 855 145.042C848.12 142.991 841.101 143 834 143z"/>
<path style="fill:#a1903d; stroke:none;" d="M847.667 143.333L848.333 143.667L847.667 143.333M856 145L857 146L856 145M861 147L862 148L861 147M863 148L864 149L863 148M865 149L866 150L865 149M870 152L871 153L870 152M871 153L872 154L871 153z"/>
<path style="fill:#010101; stroke:none;" d="M1209 154L1209 227L1254 227C1263.52 227 1273.51 227.664 1282 222.521C1302.3 210.217 1304.2 167.198 1282 155.573C1275.68 152.262 1265.95 154 1259 154L1209 154z"/>
<path style="fill:#a1903d; stroke:none;" d="M880 162L881 163L880 162M881 163L882 164L881 163M883 166L884 167L883 166M884 168L885 169L884 168M886 172L887 173L886 172M887 174L888 175L887 174M888 177L889 178L888 177M889.333 180.667L889.667 181.333L889.333 180.667M890.333 185.667L890.667 186.333L890.333 185.667z"/>
<path style="fill:#293991; stroke:none;" d="M834 224L834 409L891 409L891 310C891 292.901 893.598 273.408 887.921 257C879.669 233.156 857.422 224 834 224z"/>
<path style="fill:#a1903d; stroke:none;" d="M847 224L847 225L850 225L847 224z"/>
<path style="fill:#f5cf01; stroke:none;" d="M1638 224L1638 287L1735 287L1735 224L1638 224z"/>
<path style="fill:#a1903d; stroke:none;" d="M852.667 225.333L853.333 225.667L852.667 225.333z"/>
<path style="fill:#293991; stroke:none;" d="M449 226C455.84 254.797 474.162 283.909 486.14 311C495.585 332.363 505.094 353.705 514.694 375C519.547 385.764 523.408 398.2 530 408L545.344 358L564 302C548.641 311.788 543.488 300.457 537.309 287C530.726 272.664 524.289 258.086 517.247 244C514.795 239.095 512.528 231.275 508.363 227.603C504.748 224.417 496.49 226 492 226L449 226z"/>
<path style="fill:#a1903d; stroke:none;" d="M856.667 226.333L857.333 226.667L856.667 226.333M859 227L860 228L859 227z"/>
<path style="fill:#293991; stroke:none;" d="M1209 227L1209 285L1277 285C1285.04 285 1298.72 282.384 1306 286.028C1327.83 296.961 1324.52 340.786 1305 351.91C1296.44 356.791 1283.47 355 1274 355L1209 355L1209 408L1294 408C1313.1 408 1331.19 409.359 1348 398.561C1386.19 374.019 1394.86 314.989 1384.37 274C1380.12 257.406 1371.79 237.676 1356 228.97C1345.37 223.109 1324.95 227 1313 227L1209 227z"/>
<path style="fill:#a1903d; stroke:none;" d="M861 228L862 229L861 228M1638 228L1638 269L1639 269C1639 257.304 1642.51 238.75 1638 228M863 229L864 230L863 229M865 230L866 231L865 230M867 231L868 232L867 231M870 233L871 234L870 233M871 234L872 235L871 234M880 243L881 244L880 243M881 244L882 245L881 244M883 247L884 248L883 247M884 249L885 250L884 249M886 253L887 254L886 253M887 255L888 256L887 255M522 256L523 257L522 256M888.333 257.667L888.667 258.333L888.333 257.667M523 258L524 259L523 258M524 260L525 261L524 260M889.333 261.667L889.667 262.333L889.333 261.667M525 262L526 263L525 262M526 264L527 265L526 264M890 265L890 269L891 269L890 265M527 266L528 267L527 266M528 268L529 269L528 268M529 270L530 271L529 270M530 272L531 273L530 272M531 274L532 275L531 274M532 276L533 277L532 276M533 278L534 279L533 278M534 280L535 281L534 280M535 282L536 283L535 282M536 285L537 286L536 285z"/>
<path style="fill:#010101; stroke:none;" d="M1209 285L1209 355L1275 355C1284.57 355 1297.32 356.869 1306 351.91C1324.58 341.298 1327.74 296.452 1307 286.028C1299.74 282.378 1286.03 285 1278 285L1209 285z"/>
<path style="fill:#a1903d; stroke:none;" d="M537 287L538 288L537 287M538 289L539 290L538 289M539 291L540 292L539 291M540 293L541 294L540 293M541 295L542 296L541 295M542 297L543 298L542 297M543 299L544 300L543 299M564 300L565 301L564 300M544 301L545 302L544 301M563 301L564 302L563 301M545 303L546 304L545 303M546 304L547 305L546 304M560 304L561 305L560 304M547 305L548 306L547 305M559 305L560 306L559 305M550.667 306.333L551.333 306.667L550.667 306.333M555.667 306.333L556.333 306.667L555.667 306.333z"/>
<path style="fill:#eb1b27; stroke:none;" d="M1638 345L1638 408L1781 408L1781 345L1638 345z"/>
</svg>
